<svg width="40" height="40" viewBox="0 0 40 40" fill="none" xmlns="http://www.w3.org/2000/svg">
<g id="map.11 1">
<path id="Vector" d="M15.2475 12.4805C14.3141 12.4805 13.5808 13.2305 13.5808 14.1471C13.5808 15.0638 14.3308 15.8138 15.2475 15.8138C16.1641 15.8138 16.9141 15.0638 16.9141 14.1471C16.9141 13.2305 16.1641 12.4805 15.2475 12.4805Z" fill="#FF5722"/>
<path id="Vector_2" d="M35.7666 8.39992C34.3666 5.14992 31.2833 3.33325 26.9833 3.33325H13.0166C7.66659 3.33325 3.33325 7.66659 3.33325 13.0166V26.9833C3.33325 31.2833 5.14992 34.3666 8.39992 35.7666C8.71659 35.8999 9.08325 35.8166 9.31659 35.5833L35.5833 9.31659C35.8333 9.06659 35.9166 8.69992 35.7666 8.39992ZM17.5499 20.3999C16.8999 21.0333 16.0499 21.3333 15.1999 21.3333C14.3499 21.3333 13.4999 21.0166 12.8499 20.3999C11.1499 18.7999 9.28325 16.2499 9.99992 13.2166C10.6333 10.4666 13.0666 9.23325 15.1999 9.23325C17.3333 9.23325 19.7666 10.4666 20.3999 13.2333C21.0999 16.2499 19.2333 18.7999 17.5499 20.3999Z" fill="#FF5722"/>
<path id="Vector_3" d="M32.4482 34.2159C32.8148 34.5826 32.7648 35.1826 32.3148 35.4326C30.8482 36.2492 29.0648 36.6659 26.9815 36.6659H13.0149C12.5315 36.6659 12.3315 36.0992 12.6649 35.7659L22.7315 25.6992C23.0648 25.3659 23.5815 25.3659 23.9148 25.6992L32.4482 34.2159Z" fill="#FF5722"/>
<path id="Vector_4" d="M36.6696 13.0149V26.9815C36.6696 29.0648 36.2529 30.8648 35.4363 32.3148C35.1863 32.7648 34.5863 32.7982 34.2196 32.4482L25.6863 23.9148C25.3529 23.5815 25.3529 23.0648 25.6863 22.7315L35.7529 12.6649C36.1029 12.3315 36.6696 12.5315 36.6696 13.0149Z" fill="#FF5722"/>
</g>
</svg>
